<svg width="23" height="24" viewBox="0 0 23 24" fill="none" xmlns="http://www.w3.org/2000/svg">
<path d="M15 6.33329C16.2887 6.33329 17.3333 5.28862 17.3333 3.99996C17.3333 2.71129 16.2887 1.66663 15 1.66663C13.7113 1.66663 12.6667 2.71129 12.6667 3.99996C12.6667 5.28862 13.7113 6.33329 15 6.33329Z" fill="white"/>
<path d="M15 7.65337C14.8167 7.65337 14.6667 7.51671 14.6667 7.33337V7.30671C14.6667 7.12337 14.8167 6.97337 15 6.97337C15.1833 6.97337 15.3333 7.12337 15.3333 7.30671C15.3333 7.49004 15.1833 7.65337 15 7.65337ZM17.38 6.71337C17.2933 6.71337 17.21 6.68004 17.1433 6.61671L17.1 6.57337C16.97 6.44337 16.97 6.23337 17.1 6.10337C17.23 5.97337 17.44 5.97337 17.57 6.10337L17.6133 6.14671C17.7433 6.27671 17.7433 6.48671 17.6133 6.61671C17.55 6.68004 17.4667 6.71337 17.38 6.71337ZM12.62 6.71337C12.5333 6.71337 12.45 6.68004 12.3833 6.61671C12.2533 6.48671 12.2533 6.27671 12.3833 6.14671L12.4267 6.10337C12.5567 5.97337 12.7667 5.97337 12.8967 6.10337C13.0267 6.23337 13.0267 6.44337 12.8967 6.57337L12.8533 6.61671C12.79 6.68004 12.7033 6.71337 12.62 6.71337ZM18.3333 4.33337H18.3067C18.1233 4.33337 17.9733 4.18337 17.9733 4.00004C17.9733 3.81671 18.1233 3.66671 18.3067 3.66671C18.49 3.66671 18.6533 3.81671 18.6533 4.00004C18.6533 4.18337 18.5167 4.33337 18.3333 4.33337ZM11.6933 4.33337H11.6667C11.4833 4.33337 11.3333 4.18337 11.3333 4.00004C11.3333 3.81671 11.4833 3.66671 11.6667 3.66671C11.85 3.66671 12.0133 3.81671 12.0133 4.00004C12.0133 4.18337 11.8767 4.33337 11.6933 4.33337ZM17.3367 1.99671C17.25 1.99671 17.1667 1.96337 17.1 1.90004C16.97 1.77004 16.97 1.56004 17.1 1.43004L17.1433 1.38671C17.2733 1.25671 17.4833 1.25671 17.6133 1.38671C17.7433 1.51671 17.7433 1.72671 17.6133 1.85671L17.57 1.90004C17.5067 1.96337 17.4233 1.99671 17.3367 1.99671ZM12.6633 1.99671C12.5767 1.99671 12.4933 1.96337 12.4267 1.90004L12.3833 1.85337C12.2533 1.72337 12.2533 1.51337 12.3833 1.38337C12.5133 1.25337 12.7233 1.25337 12.8533 1.38337L12.8967 1.42671C13.0267 1.55671 13.0267 1.76671 12.8967 1.89671C12.8333 1.96337 12.7467 1.99671 12.6633 1.99671ZM15 1.01337C14.8167 1.01337 14.6667 0.876707 14.6667 0.693374V0.666707C14.6667 0.483374 14.8167 0.333374 15 0.333374C15.1833 0.333374 15.3333 0.483374 15.3333 0.666707C15.3333 0.850041 15.1833 1.01337 15 1.01337Z" fill="white"/>
<path d="M3.99999 17.3333C5.28865 17.3333 6.33332 16.2886 6.33332 15C6.33332 13.7113 5.28865 12.6666 3.99999 12.6666C2.71133 12.6666 1.66666 13.7113 1.66666 15C1.66666 16.2886 2.71133 17.3333 3.99999 17.3333Z" fill="white"/>
<path d="M4.00001 18.6534C3.81668 18.6534 3.66668 18.5167 3.66668 18.3334V18.3067C3.66668 18.1234 3.81668 17.9734 4.00001 17.9734C4.18334 17.9734 4.33334 18.1234 4.33334 18.3067C4.33334 18.49 4.18334 18.6534 4.00001 18.6534ZM6.38001 17.7134C6.29334 17.7134 6.21001 17.68 6.14334 17.6167L6.10001 17.5734C5.97001 17.4434 5.97001 17.2334 6.10001 17.1034C6.23001 16.9734 6.44001 16.9734 6.57001 17.1034L6.61334 17.1467C6.74334 17.2767 6.74334 17.4867 6.61334 17.6167C6.55001 17.68 6.46668 17.7134 6.38001 17.7134ZM1.62001 17.7134C1.53334 17.7134 1.45001 17.68 1.38334 17.6167C1.25334 17.4867 1.25334 17.2767 1.38334 17.1467L1.42668 17.1034C1.55668 16.9734 1.76668 16.9734 1.89668 17.1034C2.02668 17.2334 2.02668 17.4434 1.89668 17.5734L1.85334 17.6167C1.79001 17.68 1.70334 17.7134 1.62001 17.7134ZM7.33334 15.3334H7.30668C7.12334 15.3334 6.97334 15.1834 6.97334 15C6.97334 14.8167 7.12334 14.6667 7.30668 14.6667C7.49001 14.6667 7.65334 14.8167 7.65334 15C7.65334 15.1834 7.51668 15.3334 7.33334 15.3334ZM0.693343 15.3334H0.666677C0.483344 15.3334 0.333344 15.1834 0.333344 15C0.333344 14.8167 0.483344 14.6667 0.666677 14.6667C0.85001 14.6667 1.01334 14.8167 1.01334 15C1.01334 15.1834 0.876677 15.3334 0.693343 15.3334ZM6.33668 12.9967C6.25001 12.9967 6.16668 12.9634 6.10001 12.9C5.97001 12.77 5.97001 12.56 6.10001 12.43L6.14334 12.3867C6.27334 12.2567 6.48334 12.2567 6.61334 12.3867C6.74334 12.5167 6.74334 12.7267 6.61334 12.8567L6.57001 12.9C6.50668 12.9634 6.42334 12.9967 6.33668 12.9967ZM1.66334 12.9967C1.57668 12.9967 1.49334 12.9634 1.42668 12.9L1.38334 12.8534C1.25334 12.7234 1.25334 12.5134 1.38334 12.3834C1.51334 12.2534 1.72334 12.2534 1.85334 12.3834L1.89668 12.4267C2.02668 12.5567 2.02668 12.7667 1.89668 12.8967C1.83334 12.9634 1.74668 12.9967 1.66334 12.9967ZM4.00001 12.0134C3.81668 12.0134 3.66668 11.8767 3.66668 11.6934V11.6667C3.66668 11.4834 3.81668 11.3334 4.00001 11.3334C4.18334 11.3334 4.33334 11.4834 4.33334 11.6667C4.33334 11.85 4.18334 12.0134 4.00001 12.0134Z" fill="white"/>
<path d="M19 22.3333C20.2887 22.3333 21.3333 21.2886 21.3333 20C21.3333 18.7113 20.2887 17.6666 19 17.6666C17.7113 17.6666 16.6667 18.7113 16.6667 20C16.6667 21.2886 17.7113 22.3333 19 22.3333Z" fill="white"/>
<path d="M19 23.6534C18.8167 23.6534 18.6667 23.5167 18.6667 23.3334V23.3067C18.6667 23.1234 18.8167 22.9734 19 22.9734C19.1833 22.9734 19.3333 23.1234 19.3333 23.3067C19.3333 23.49 19.1833 23.6534 19 23.6534ZM21.38 22.7134C21.2933 22.7134 21.21 22.68 21.1433 22.6167L21.1 22.5734C20.97 22.4434 20.97 22.2334 21.1 22.1034C21.23 21.9734 21.44 21.9734 21.57 22.1034L21.6133 22.1467C21.7433 22.2767 21.7433 22.4867 21.6133 22.6167C21.55 22.68 21.4667 22.7134 21.38 22.7134ZM16.62 22.7134C16.5333 22.7134 16.45 22.68 16.3833 22.6167C16.2533 22.4867 16.2533 22.2767 16.3833 22.1467L16.4267 22.1034C16.5567 21.9734 16.7667 21.9734 16.8967 22.1034C17.0267 22.2334 17.0267 22.4434 16.8967 22.5734L16.8533 22.6167C16.79 22.68 16.7033 22.7134 16.62 22.7134ZM22.3333 20.3334H22.3067C22.1233 20.3334 21.9733 20.1834 21.9733 20C21.9733 19.8167 22.1233 19.6667 22.3067 19.6667C22.49 19.6667 22.6533 19.8167 22.6533 20C22.6533 20.1834 22.5167 20.3334 22.3333 20.3334ZM15.6933 20.3334H15.6667C15.4833 20.3334 15.3333 20.1834 15.3333 20C15.3333 19.8167 15.4833 19.6667 15.6667 19.6667C15.85 19.6667 16.0133 19.8167 16.0133 20C16.0133 20.1834 15.8767 20.3334 15.6933 20.3334ZM21.3367 17.9967C21.25 17.9967 21.1667 17.9634 21.1 17.9C20.97 17.77 20.97 17.56 21.1 17.43L21.1433 17.3867C21.2733 17.2567 21.4833 17.2567 21.6133 17.3867C21.7433 17.5167 21.7433 17.7267 21.6133 17.8567L21.57 17.9C21.5067 17.9634 21.4233 17.9967 21.3367 17.9967ZM16.6633 17.9967C16.5767 17.9967 16.4933 17.9634 16.4267 17.9L16.3833 17.8534C16.2533 17.7234 16.2533 17.5134 16.3833 17.3834C16.5133 17.2534 16.7233 17.2534 16.8533 17.3834L16.8967 17.4267C17.0267 17.5567 17.0267 17.7667 16.8967 17.8967C16.8333 17.9634 16.7467 17.9967 16.6633 17.9967ZM19 17.0134C18.8167 17.0134 18.6667 16.8767 18.6667 16.6934V16.6667C18.6667 16.4834 18.8167 16.3334 19 16.3334C19.1833 16.3334 19.3333 16.4834 19.3333 16.6667C19.3333 16.85 19.1833 17.0134 19 17.0134Z" fill="white"/>
</svg>
