<svg width="23" height="24" viewBox="0 0 23 24" fill="none" xmlns="http://www.w3.org/2000/svg">
<path d="M13.1767 5.31C13.1233 5.22 12.9733 5.08 12.6 5.14666C12.3933 5.18333 12.1833 5.2 11.9733 5.19C11.1967 5.15666 10.4933 4.8 10.0033 4.25C9.56999 3.76666 9.30333 3.13666 9.29999 2.45666C9.29999 2.07666 9.37333 1.71 9.52333 1.36333C9.66999 1.02666 9.56666 0.849998 9.49333 0.776665C9.41666 0.699998 9.23666 0.593332 8.88333 0.739998C7.51999 1.31333 6.67666 2.68 6.77666 4.14333C6.87666 5.52 7.84333 6.69666 9.12333 7.14C9.42999 7.24666 9.75333 7.31 10.0867 7.32333C10.14 7.32666 10.1933 7.33 10.2467 7.33C11.3633 7.33 12.41 6.80333 13.07 5.90666C13.2933 5.59666 13.2333 5.4 13.1767 5.31Z" fill="white"/>
<path d="M22.1767 16.31C22.1233 16.22 21.9733 16.08 21.6 16.1467C21.3933 16.1833 21.1833 16.2 20.9733 16.19C20.1967 16.1567 19.4933 15.8 19.0033 15.25C18.57 14.7667 18.3033 14.1367 18.3 13.4567C18.3 13.0767 18.3733 12.71 18.5233 12.3633C18.67 12.0267 18.5667 11.85 18.4933 11.7767C18.4167 11.7 18.2367 11.5933 17.8833 11.74C16.52 12.3133 15.6767 13.68 15.7767 15.1433C15.8767 16.52 16.8433 17.6967 18.1233 18.14C18.43 18.2467 18.7533 18.31 19.0867 18.3233C19.14 18.3267 19.1933 18.33 19.2467 18.33C20.3633 18.33 21.41 17.8033 22.07 16.9067C22.2933 16.5967 22.2333 16.4 22.1767 16.31Z" fill="white"/>
<path d="M7.17666 21.31C7.12333 21.22 6.97333 21.08 6.59999 21.1467C6.39333 21.1833 6.18333 21.2 5.97333 21.19C5.19666 21.1567 4.49333 20.8 4.00333 20.25C3.56999 19.7667 3.30333 19.1367 3.29999 18.4567C3.29999 18.0767 3.37333 17.71 3.52333 17.3633C3.66999 17.0267 3.56666 16.85 3.49333 16.7767C3.41666 16.7 3.23666 16.5933 2.88333 16.74C1.51999 17.3133 0.676661 18.68 0.776661 20.1433C0.876661 21.52 1.84333 22.6967 3.12333 23.14C3.42999 23.2467 3.75333 23.31 4.08666 23.3233C4.13999 23.3267 4.19333 23.33 4.24666 23.33C5.36333 23.33 6.40999 22.8033 7.06999 21.9067C7.29333 21.5967 7.23333 21.4 7.17666 21.31Z" fill="white"/>
</svg>
