<svg width="24" height="24" viewBox="0 0 24 24" fill="none" xmlns="http://www.w3.org/2000/svg">
<rect width="24" height="24" rx="12" fill="white"/>
<path d="M18.3534 14.6201C18.2467 14.4401 17.9467 14.1601 17.2 14.2935C16.7867 14.3668 16.3667 14.4001 15.9467 14.3801C14.3934 14.3135 12.9867 13.6001 12.0067 12.5001C11.14 11.5335 10.6067 10.2735 10.6 8.91345C10.6 8.15345 10.7467 7.42012 11.0467 6.72679C11.34 6.05345 11.1334 5.70012 10.9867 5.55345C10.8334 5.40012 10.4734 5.18679 9.76669 5.48012C7.04002 6.62679 5.35335 9.36012 5.55335 12.2868C5.75335 15.0401 7.68669 17.3935 10.2467 18.2801C10.86 18.4935 11.5067 18.6201 12.1734 18.6468C12.28 18.6535 12.3867 18.6601 12.4934 18.6601C14.7267 18.6601 16.82 17.6068 18.14 15.8135C18.5867 15.1935 18.4667 14.8001 18.3534 14.6201Z" fill="#1A4CFF"/>
</svg>
