<svg width="12" height="12" viewBox="0 0 12 12" fill="none" xmlns="http://www.w3.org/2000/svg">
<path d="M6.86499 1.75507L7.74499 3.51507C7.86499 3.76007 8.18499 3.99507 8.45499 4.04007L10.05 4.30507C11.07 4.47507 11.31 5.21507 10.575 5.94507L9.33499 7.18507C9.12499 7.39507 9.00999 7.80007 9.07499 8.09007L9.42999 9.62507C9.70999 10.8401 9.06499 11.3101 7.98999 10.6751L6.49499 9.79007C6.22499 9.63007 5.77999 9.63007 5.50499 9.79007L4.00999 10.6751C2.93999 11.3101 2.28999 10.8351 2.56999 9.62507L2.92499 8.09007C2.98999 7.80007 2.87499 7.39507 2.66499 7.18507L1.42499 5.94507C0.694985 5.21507 0.929985 4.47507 1.94999 4.30507L3.54499 4.04007C3.80999 3.99507 4.12999 3.76007 4.24999 3.51507L5.12999 1.75507C5.60999 0.800068 6.38999 0.800068 6.86499 1.75507Z" fill="#FFC122" stroke="#FFC122" stroke-width="1.5" stroke-linecap="round" stroke-linejoin="round"/>
</svg>
