<svg width="24" height="24" viewBox="0 0 24 24" fill="none" xmlns="http://www.w3.org/2000/svg">
<rect width="24" height="24" rx="12" fill="white"/>
<path d="M12 16.6667C14.5773 16.6667 16.6667 14.5774 16.6667 12C16.6667 9.42271 14.5773 7.33337 12 7.33337C9.42268 7.33337 7.33334 9.42271 7.33334 12C7.33334 14.5774 9.42268 16.6667 12 16.6667Z" fill="#FFC700"/>
<path d="M12 19.3066C11.6333 19.3066 11.3333 19.0333 11.3333 18.6666V18.6133C11.3333 18.2466 11.6333 17.9466 12 17.9466C12.3667 17.9466 12.6667 18.2466 12.6667 18.6133C12.6667 18.98 12.3667 19.3066 12 19.3066ZM16.76 17.4266C16.5867 17.4266 16.42 17.36 16.2867 17.2333L16.2 17.1466C15.94 16.8866 15.94 16.4666 16.2 16.2066C16.46 15.9466 16.88 15.9466 17.14 16.2066L17.2267 16.2933C17.4867 16.5533 17.4867 16.9733 17.2267 17.2333C17.1 17.36 16.9333 17.4266 16.76 17.4266ZM7.23999 17.4266C7.06666 17.4266 6.89999 17.36 6.76666 17.2333C6.50666 16.9733 6.50666 16.5533 6.76666 16.2933L6.85332 16.2066C7.11332 15.9466 7.53332 15.9466 7.79332 16.2066C8.05332 16.4666 8.05332 16.8866 7.79332 17.1466L7.70666 17.2333C7.57999 17.36 7.40666 17.4266 7.23999 17.4266ZM18.6667 12.6666H18.6133C18.2467 12.6666 17.9467 12.3666 17.9467 12C17.9467 11.6333 18.2467 11.3333 18.6133 11.3333C18.98 11.3333 19.3067 11.6333 19.3067 12C19.3067 12.3666 19.0333 12.6666 18.6667 12.6666ZM5.38666 12.6666H5.33332C4.96666 12.6666 4.66666 12.3666 4.66666 12C4.66666 11.6333 4.96666 11.3333 5.33332 11.3333C5.69999 11.3333 6.02666 11.6333 6.02666 12C6.02666 12.3666 5.75332 12.6666 5.38666 12.6666ZM16.6733 7.99329C16.5 7.99329 16.3333 7.92663 16.2 7.79996C15.94 7.53996 15.94 7.11996 16.2 6.85996L16.2867 6.77329C16.5467 6.51329 16.9667 6.51329 17.2267 6.77329C17.4867 7.03329 17.4867 7.45329 17.2267 7.71329L17.14 7.79996C17.0133 7.92663 16.8467 7.99329 16.6733 7.99329ZM7.32666 7.99329C7.15332 7.99329 6.98666 7.92663 6.85332 7.79996L6.76666 7.70663C6.50666 7.44663 6.50666 7.02663 6.76666 6.76663C7.02666 6.50663 7.44666 6.50663 7.70666 6.76663L7.79332 6.85329C8.05332 7.11329 8.05332 7.53329 7.79332 7.79329C7.66666 7.92663 7.49332 7.99329 7.32666 7.99329ZM12 6.02663C11.6333 6.02663 11.3333 5.75329 11.3333 5.38663V5.33329C11.3333 4.96663 11.6333 4.66663 12 4.66663C12.3667 4.66663 12.6667 4.96663 12.6667 5.33329C12.6667 5.69996 12.3667 6.02663 12 6.02663Z" fill="#FFC700"/>
</svg>
